<svg width="126" height="36" viewBox="0 0 126 36" fill="none" xmlns="http://www.w3.org/2000/svg">
<path d="M125.3 31.8486C125.3 33.7671 123.696 35.3211 121.712 35.3211H4.2929C2.30985 35.3211 0.700195 33.7671 0.700195 31.8486V4.15659C0.700195 2.23901 2.30985 0.679565 4.2929 0.679565H121.711C123.696 0.679565 125.299 2.23901 125.299 4.15659L125.3 31.8486Z" fill="white"/>
<path d="M121.333 0.721186C123.494 0.721186 125.252 2.41656 125.252 4.50006V31.5001C125.252 33.5836 123.494 35.2789 121.333 35.2789H4.66667C2.506 35.2789 0.747833 33.5836 0.747833 31.5001V4.50006C0.747833 2.41656 2.506 0.721186 4.66667 0.721186H121.333ZM121.333 6.29377e-05H4.66667C2.10117 6.29377e-05 0 2.02619 0 4.50006V31.5001C0 33.9739 2.10117 36.0001 4.66667 36.0001H121.333C123.899 36.0001 126 33.9739 126 31.5001V4.50006C126 2.02619 123.899 6.29377e-05 121.333 6.29377e-05Z" fill="#A6A6A6"/>
<path d="M28.1198 17.8058C28.0927 14.9051 30.5829 13.4939 30.6967 13.4282C29.2865 11.4455 27.1006 11.1746 26.3325 11.153C24.4966 10.9667 22.7158 12.2123 21.7806 12.2123C20.8267 12.2123 19.3866 11.171 17.8345 11.2016C15.8371 11.2313 13.9686 12.3464 12.9438 14.078C10.8289 17.6087 12.4062 22.7972 14.4325 25.6511C15.4461 27.0488 16.6305 28.6094 18.1807 28.5545C19.6974 28.4942 20.2639 27.6221 22.0942 27.6221C23.9077 27.6221 24.4397 28.5545 26.0207 28.5194C27.6485 28.4942 28.6733 27.1154 29.6514 25.7051C30.8227 24.1031 31.2931 22.5254 31.3118 22.4444C31.2735 22.4318 28.1506 21.2825 28.1198 17.8058Z" fill="black"/>
<path d="M25.1331 9.27562C25.9489 8.29192 26.507 6.95362 26.3521 5.59552C25.1714 5.64592 23.6949 6.38302 22.8446 7.34512C22.0923 8.19292 21.4203 9.58252 21.5939 10.8893C22.9202 10.9847 24.2819 10.244 25.1331 9.27562Z" fill="black"/>
<path d="M45.7804 9.00857C45.7804 10.0679 45.4509 10.8653 44.7929 11.4008C44.1835 11.8949 43.3173 12.1424 42.1955 12.1424C41.6392 12.1424 41.1632 12.119 40.7646 12.0722V6.28426C41.2845 6.20326 41.8445 6.16187 42.4493 6.16187C43.518 6.16187 44.3235 6.38597 44.8667 6.83417C45.4752 7.34087 45.7804 8.06537 45.7804 9.00857ZM44.7491 9.03467C44.7491 8.34797 44.5605 7.82146 44.1835 7.45426C43.8064 7.08796 43.2557 6.90437 42.5305 6.90437C42.2225 6.90437 41.9602 6.92417 41.7428 6.96557V11.3657C41.8632 11.3837 42.0835 11.3918 42.4036 11.3918C43.1521 11.3918 43.7299 11.1911 44.1368 10.7897C44.5437 10.3883 44.7491 9.80327 44.7491 9.03467Z" fill="black"/>
<path d="M51.2487 9.93359C51.2487 10.5861 51.0555 11.1207 50.6691 11.5401C50.264 11.9712 49.7273 12.1863 49.0572 12.1863C48.4113 12.1863 47.8971 11.9802 47.5135 11.5662C47.1308 11.1531 46.9395 10.632 46.9395 10.0038C46.9395 9.34679 47.1364 8.80769 47.5321 8.38919C47.9279 7.97069 48.4599 7.76099 49.13 7.76099C49.7759 7.76099 50.2948 7.96709 50.6877 8.38019C51.0611 8.78159 51.2487 9.29999 51.2487 9.93359ZM50.2341 9.96419C50.2341 9.57269 50.1464 9.23699 49.9719 8.95709C49.7665 8.61869 49.4744 8.44949 49.0945 8.44949C48.7016 8.44949 48.4029 8.61869 48.1976 8.95709C48.0221 9.23699 47.9353 9.57809 47.9353 9.98129C47.9353 10.3728 48.0231 10.7085 48.1976 10.9884C48.4095 11.3268 48.7044 11.496 49.0852 11.496C49.4585 11.496 49.7516 11.3241 49.9625 10.9794C50.1436 10.6941 50.2341 10.3557 50.2341 9.96419Z" fill="black"/>
<path d="M58.5807 7.8476L57.2041 12.0902H56.3081L55.7378 10.2479C55.5931 9.78799 55.4755 9.3308 55.3841 8.8772H55.3663C55.2814 9.3434 55.1638 9.79969 55.0126 10.2479L54.4069 12.0902H53.5006L52.2061 7.8476H53.2113L53.7087 9.8645C53.8291 10.3415 53.9281 10.796 54.0074 11.2262H54.0251C54.0979 10.8716 54.2183 10.4198 54.3882 9.8735L55.0126 7.8485H55.8097L56.4079 9.8303C56.5526 10.3136 56.6702 10.7789 56.7607 11.2271H56.7878C56.8541 10.7906 56.9539 10.3253 57.0865 9.8303L57.6203 7.8485H58.5807V7.8476Z" fill="black"/>
<path d="M63.6514 12.0898H62.6733V9.65976C62.6733 8.91096 62.3784 8.53656 61.7866 8.53656C61.4964 8.53656 61.2621 8.63916 61.0801 8.84526C60.9 9.05136 60.8085 9.29436 60.8085 9.57246V12.0889H59.8304V9.05946C59.8304 8.68686 59.8183 8.28276 59.7949 7.84536H60.6545L60.7003 8.50866H60.7273C60.8412 8.30256 61.0111 8.13246 61.2341 7.99656C61.4992 7.83816 61.796 7.75806 62.1208 7.75806C62.5314 7.75806 62.873 7.88586 63.1446 8.14236C63.4825 8.45646 63.6514 8.92536 63.6514 9.54816V12.0898Z" fill="black"/>
<path d="M66.3493 12.0899H65.3721V5.90057H66.3493V12.0899Z" fill="black"/>
<path d="M72.108 9.93359C72.108 10.5861 71.9148 11.1207 71.5284 11.5401C71.1234 11.9712 70.5858 12.1863 69.9166 12.1863C69.2698 12.1863 68.7555 11.9802 68.3728 11.5662C67.9902 11.1531 67.7988 10.632 67.7988 10.0038C67.7988 9.34679 67.9958 8.80769 68.3915 8.38919C68.7872 7.97069 69.3192 7.76099 69.9884 7.76099C70.6352 7.76099 71.1532 7.96709 71.5471 8.38019C71.9204 8.78159 72.108 9.29999 72.108 9.93359ZM71.0926 9.96419C71.0926 9.57269 71.0048 9.23699 70.8303 8.95709C70.6259 8.61869 70.3328 8.44949 69.9539 8.44949C69.56 8.44949 69.2614 8.61869 69.057 8.95709C68.8815 9.23699 68.7947 9.57809 68.7947 9.98129C68.7947 10.3728 68.8824 10.7085 69.057 10.9884C69.2688 11.3268 69.5638 11.496 69.9446 11.496C70.3179 11.496 70.61 11.3241 70.821 10.9794C71.003 10.6941 71.0926 10.3557 71.0926 9.96419Z" fill="black"/>
<path d="M76.8415 12.09H75.9632L75.8904 11.6013H75.8634C75.5628 11.991 75.1344 12.1863 74.5782 12.1863C74.1628 12.1863 73.8268 12.0576 73.5739 11.802C73.3443 11.5698 73.2295 11.2809 73.2295 10.938C73.2295 10.4196 73.4535 10.0245 73.9043 9.75089C74.3542 9.47729 74.987 9.34319 75.8018 9.34949V9.27029C75.8018 8.71139 75.4975 8.43239 74.888 8.43239C74.454 8.43239 74.0714 8.53769 73.741 8.74649L73.5422 8.12729C73.951 7.88339 74.4559 7.76099 75.0514 7.76099C76.2012 7.76099 76.778 8.34599 76.778 9.51599V11.0784C76.778 11.5023 76.7995 11.8398 76.8415 12.09ZM75.826 10.632V9.97769C74.7471 9.95969 74.2076 10.245 74.2076 10.8327C74.2076 11.0541 74.2692 11.2197 74.3952 11.3304C74.5212 11.4411 74.6818 11.496 74.8731 11.496C75.0878 11.496 75.2884 11.4303 75.4714 11.2998C75.6552 11.1684 75.7682 11.0019 75.8102 10.7976C75.8204 10.7517 75.826 10.6959 75.826 10.632Z" fill="black"/>
<path d="M82.4002 12.0899H81.5322L81.4865 11.4086H81.4594C81.1822 11.927 80.7099 12.1862 80.0463 12.1862C79.5162 12.1862 79.0747 11.9855 78.7247 11.5841C78.3747 11.1827 78.2002 10.6616 78.2002 10.0217C78.2002 9.33497 78.3897 8.77877 78.7705 8.35397C79.1391 7.95797 79.5909 7.75997 80.1285 7.75997C80.7193 7.75997 81.1327 7.95167 81.3679 8.33597H81.3866V5.90057H82.3657V10.9469C82.3657 11.36 82.3769 11.7407 82.4002 12.0899ZM81.3866 10.3007V9.59327C81.3866 9.47087 81.3773 9.37187 81.3595 9.29627C81.3045 9.06947 81.1859 8.87867 81.0058 8.72477C80.8238 8.57087 80.6045 8.49347 80.3515 8.49347C79.9866 8.49347 79.701 8.63297 79.491 8.91287C79.2829 9.19277 79.1774 9.55007 79.1774 9.98657C79.1774 10.406 79.2773 10.7462 79.4779 11.0081C79.6898 11.2871 79.9754 11.4266 80.3329 11.4266C80.6539 11.4266 80.9106 11.3105 81.1057 11.0774C81.2942 10.8623 81.3866 10.6031 81.3866 10.3007Z" fill="black"/>
<path d="M90.7653 9.93359C90.7653 10.5861 90.5721 11.1207 90.1857 11.5401C89.7806 11.9712 89.2449 12.1863 88.5738 12.1863C87.9289 12.1863 87.4146 11.9802 87.0301 11.5662C86.6474 11.1531 86.4561 10.632 86.4561 10.0038C86.4561 9.34679 86.653 8.80769 87.0487 8.38919C87.4445 7.97069 87.9765 7.76099 88.6475 7.76099C89.2925 7.76099 89.8123 7.96709 90.2043 8.38019C90.5777 8.78159 90.7653 9.29999 90.7653 9.93359ZM89.7517 9.96419C89.7517 9.57269 89.6639 9.23699 89.4894 8.95709C89.2831 8.61869 88.9919 8.44949 88.6111 8.44949C88.2191 8.44949 87.9205 8.61869 87.7142 8.95709C87.5387 9.23699 87.4519 9.57809 87.4519 9.98129C87.4519 10.3728 87.5397 10.7085 87.7142 10.9884C87.9261 11.3268 88.221 11.496 88.6018 11.496C88.9751 11.496 89.2691 11.3241 89.4801 10.9794C89.6602 10.6941 89.7517 10.3557 89.7517 9.96419Z" fill="black"/>
<path d="M96.0245 12.0898H95.0473V9.65976C95.0473 8.91096 94.7524 8.53656 94.1597 8.53656C93.8695 8.53656 93.6352 8.63916 93.4541 8.84526C93.2731 9.05136 93.1825 9.29436 93.1825 9.57246V12.0889H92.2035V9.05946C92.2035 8.68686 92.1923 8.28276 92.1689 7.84536H93.0276L93.0733 8.50866H93.1004C93.2152 8.30256 93.3851 8.13246 93.6072 7.99656C93.8732 7.83816 94.1691 7.75806 94.4948 7.75806C94.9045 7.75806 95.2461 7.88586 95.5177 8.14236C95.8565 8.45646 96.0245 8.92536 96.0245 9.54816V12.0898Z" fill="black"/>
<path d="M102.607 8.55387H101.53V10.6149C101.53 11.1387 101.722 11.4006 102.101 11.4006C102.276 11.4006 102.422 11.3862 102.536 11.3565L102.562 12.072C102.368 12.1422 102.115 12.1773 101.802 12.1773C101.415 12.1773 101.115 12.0639 100.897 11.8371C100.679 11.6103 100.571 11.2287 100.571 10.6932V8.55387H99.9277V7.84737H100.571V7.06977L101.529 6.79077V7.84647H102.606V8.55387H102.607Z" fill="black"/>
<path d="M107.786 12.0899H106.807V9.67787C106.807 8.91737 106.512 8.53667 105.921 8.53667C105.468 8.53667 105.158 8.75717 104.988 9.19817C104.959 9.29087 104.942 9.40427 104.942 9.53747V12.089H103.965V5.90057H104.942V8.45747H104.961C105.269 7.99217 105.71 7.75997 106.282 7.75997C106.687 7.75997 107.022 7.88777 107.288 8.14427C107.62 8.46377 107.786 8.93897 107.786 9.56717V12.0899Z" fill="black"/>
<path d="M113.126 9.76803C113.126 9.93723 113.113 10.0794 113.09 10.1955H110.157C110.17 10.6149 110.31 10.9344 110.581 11.1558C110.83 11.3538 111.15 11.4528 111.542 11.4528C111.976 11.4528 112.371 11.3862 112.728 11.2521L112.881 11.9073C112.464 12.0819 111.973 12.1692 111.404 12.1692C110.723 12.1692 110.186 11.9757 109.798 11.5887C109.408 11.2017 109.215 10.6824 109.215 10.0308C109.215 9.39093 109.395 8.85813 109.758 8.43333C110.137 7.97973 110.649 7.75293 111.296 7.75293C111.929 7.75293 112.41 7.97973 112.734 8.43333C112.997 8.79333 113.126 9.23883 113.126 9.76803ZM112.193 9.52413C112.201 9.24423 112.136 9.00303 112.004 8.79963C111.834 8.53773 111.575 8.40633 111.225 8.40633C110.906 8.40633 110.646 8.53413 110.447 8.79063C110.284 8.99493 110.188 9.23883 110.157 9.52413H112.193Z" fill="black"/>
<path d="M50.068 28.3532H47.9484L46.7874 24.8351H42.7516L41.6456 28.3532H39.582L43.5804 16.376H46.05L50.068 28.3532ZM46.4374 23.3591L45.3874 20.2316C45.2763 19.9121 45.0682 19.1597 44.7611 17.9753H44.7238C44.6015 18.4847 44.4046 19.2371 44.1339 20.2316L43.1026 23.3591H46.4374Z" fill="black"/>
<path d="M60.3505 23.9292C60.3505 25.398 59.9389 26.559 59.1157 27.4113C58.3784 28.17 57.4628 28.5489 56.3699 28.5489C55.1901 28.5489 54.3427 28.1403 53.8265 27.3231H53.7892V31.8726H51.7993V22.5603C51.7993 21.6369 51.7741 20.6892 51.7256 19.7172H53.4756L53.5867 21.0861H53.624C54.2876 20.0547 55.2947 19.5399 56.6461 19.5399C57.7027 19.5399 58.5847 19.9422 59.2903 20.7477C59.9977 21.5541 60.3505 22.6143 60.3505 23.9292ZM58.3233 23.9994C58.3233 23.1588 58.1273 22.4658 57.7335 21.9204C57.3032 21.3516 56.7254 21.0672 56.0012 21.0672C55.5102 21.0672 55.0641 21.2256 54.6656 21.5379C54.2661 21.8529 54.0048 22.2642 53.8825 22.7736C53.8209 23.0112 53.7901 23.2056 53.7901 23.3586V24.7986C53.7901 25.4268 53.9899 25.9569 54.3893 26.3898C54.7888 26.8227 55.3077 27.0387 55.9461 27.0387C56.6956 27.0387 57.2789 26.7597 57.6961 26.2035C58.1143 25.6464 58.3233 24.912 58.3233 23.9994Z" fill="black"/>
<path d="M70.6523 23.9292C70.6523 25.398 70.2407 26.559 69.4166 27.4113C68.6802 28.17 67.7646 28.5489 66.6717 28.5489C65.4919 28.5489 64.6445 28.1403 64.1293 27.3231H64.0919V31.8726H62.1021V22.5603C62.1021 21.6369 62.0769 20.6892 62.0283 19.7172H63.7783L63.8894 21.0861H63.9267C64.5894 20.0547 65.5965 19.5399 66.9489 19.5399C68.0045 19.5399 68.8865 19.9422 69.5939 20.7477C70.2986 21.5541 70.6523 22.6143 70.6523 23.9292ZM68.6251 23.9994C68.6251 23.1588 68.4282 22.4658 68.0343 21.9204C67.6041 21.3516 67.0282 21.0672 66.303 21.0672C65.8111 21.0672 65.3659 21.2256 64.9665 21.5379C64.567 21.8529 64.3066 22.2642 64.1843 22.7736C64.1237 23.0112 64.0919 23.2056 64.0919 23.3586V24.7986C64.0919 25.4268 64.2917 25.9569 64.6893 26.3898C65.0887 26.8218 65.6077 27.0387 66.2479 27.0387C66.9974 27.0387 67.5807 26.7597 67.9979 26.2035C68.4161 25.6464 68.6251 24.912 68.6251 23.9994Z" fill="black"/>
<path d="M82.1685 24.9945C82.1685 26.0133 81.8017 26.8422 81.0653 27.4821C80.2561 28.1814 79.1296 28.5306 77.682 28.5306C76.3454 28.5306 75.274 28.2822 74.4629 27.7845L74.924 26.1852C75.7976 26.6946 76.7561 26.9502 77.8005 26.9502C78.55 26.9502 79.1333 26.7864 79.5524 26.4606C79.9696 26.1348 80.1777 25.6974 80.1777 25.152C80.1777 24.666 80.006 24.2565 79.6616 23.9244C79.319 23.5923 78.7469 23.2836 77.948 22.9983C75.7733 22.2162 74.6869 21.0705 74.6869 19.5639C74.6869 18.5793 75.0677 17.772 75.8302 17.1438C76.59 16.5147 77.6036 16.2006 78.871 16.2006C80.0013 16.2006 80.9402 16.3905 81.6897 16.7694L81.1922 18.3336C80.4922 17.9664 79.7008 17.7828 78.815 17.7828C78.115 17.7828 77.5681 17.9493 77.1761 18.2805C76.8448 18.5766 76.6786 18.9375 76.6786 19.365C76.6786 19.8384 76.8681 20.2299 77.2489 20.5377C77.5802 20.8221 78.1822 21.1299 79.0558 21.462C80.1245 21.8769 80.9094 22.362 81.4144 22.9182C81.9174 23.4726 82.1685 24.1665 82.1685 24.9945Z" fill="black"/>
<path d="M88.7483 21.1568H86.555V25.3499C86.555 26.4164 86.9414 26.9492 87.7161 26.9492C88.0717 26.9492 88.3666 26.9195 88.5999 26.8601L88.655 28.3172C88.263 28.4585 87.7469 28.5296 87.1075 28.5296C86.3217 28.5296 85.7075 28.2983 85.2642 27.8366C84.8227 27.374 84.6006 26.5982 84.6006 25.5083V21.155H83.2939V19.715H84.6006V18.1337L86.555 17.5649V19.715H88.7483V21.1568Z" fill="black"/>
<path d="M98.6445 23.9641C98.6445 25.2916 98.2506 26.3815 97.4647 27.2338C96.6406 28.1113 95.5467 28.5487 94.1831 28.5487C92.869 28.5487 91.8227 28.1284 91.0425 27.2878C90.2622 26.4472 89.8721 25.3861 89.8721 24.1072C89.8721 22.7689 90.2734 21.6727 91.0789 20.8204C91.8825 19.9672 92.967 19.5406 94.3306 19.5406C95.6447 19.5406 96.7022 19.9609 97.5002 20.8024C98.2637 21.6187 98.6445 22.6726 98.6445 23.9641ZM96.5799 24.0262C96.5799 23.2297 96.4035 22.5466 96.0461 21.9769C95.6289 21.2875 95.0325 20.9437 94.2597 20.9437C93.4598 20.9437 92.8522 21.2884 92.435 21.9769C92.0775 22.5475 91.9011 23.2414 91.9011 24.0622C91.9011 24.8587 92.0775 25.5418 92.435 26.1106C92.8653 26.8 93.4663 27.1438 94.2419 27.1438C95.0017 27.1438 95.5981 26.7928 96.0283 26.0926C96.3951 25.5121 96.5799 24.8218 96.5799 24.0262Z" fill="black"/>
<path d="M105.112 21.4047C104.915 21.3696 104.705 21.3516 104.485 21.3516C103.785 21.3516 103.244 21.6063 102.863 22.1166C102.531 22.5666 102.365 23.1354 102.365 23.8221V28.3536H100.376L100.395 22.437C100.395 21.4416 100.37 20.5353 100.32 19.7181H102.054L102.126 21.3705H102.181C102.391 20.8026 102.723 20.3454 103.176 20.0025C103.62 19.6938 104.098 19.5399 104.615 19.5399C104.798 19.5399 104.965 19.5525 105.112 19.575V21.4047Z" fill="black"/>
<path d="M114.011 23.6268C114.011 23.9706 113.988 24.2604 113.938 24.4971H107.969C107.992 25.3503 108.281 26.0028 108.835 26.4528C109.338 26.8551 109.989 27.0567 110.787 27.0567C111.671 27.0567 112.478 26.9208 113.203 26.6481L113.515 27.9801C112.667 28.3365 111.667 28.5138 110.512 28.5138C109.123 28.5138 108.033 28.1196 107.24 27.3321C106.448 26.5446 106.052 25.4871 106.052 24.1605C106.052 22.8582 106.42 21.7737 107.159 20.9088C107.931 19.9854 108.976 19.5237 110.29 19.5237C111.581 19.5237 112.558 19.9854 113.222 20.9088C113.747 21.6423 114.011 22.5495 114.011 23.6268ZM112.114 23.1291C112.127 22.5603 111.997 22.0689 111.727 21.654C111.383 21.1203 110.854 20.8539 110.142 20.8539C109.491 20.8539 108.962 21.114 108.558 21.636C108.226 22.0509 108.029 22.5486 107.969 23.1282H112.114V23.1291Z" fill="black"/>
</svg>
