<svg width="48" height="48" viewBox="0 0 48 48" fill="none" xmlns="http://www.w3.org/2000/svg">
<rect x="0.5" y="0.5" width="47" height="47" rx="23.5" fill="#FAFAFA"/>
<path d="M23.9974 24.3333V19.3333M21.4974 21.8333H26.4974M29.8307 31V20C29.8307 18.5999 29.8307 17.8998 29.5582 17.365C29.3186 16.8946 28.9361 16.5122 28.4657 16.2725C27.9309 16 27.2309 16 25.8307 16H22.1641C20.7639 16 20.0639 16 19.5291 16.2725C19.0587 16.5122 18.6762 16.8946 18.4365 17.365C18.1641 17.8998 18.1641 18.5999 18.1641 20V31L23.9974 27.6667L29.8307 31Z" stroke="#5A5A5A" strokeWidth="2" strokeLinecap="round" strokeLinejoin="round"/>
<rect x="0.5" y="0.5" width="47" height="47" rx="23.5" stroke="#CCCCCC"/>
</svg>
