<svg width="52" height="48" viewBox="0 0 52 48" fill="none" xmlns="http://www.w3.org/2000/svg">
<path d="M23.2491 17.5056C23.6896 16.2534 24.559 15.1975 25.7034 14.5249C26.8478 13.8524 28.1933 13.6065 29.5016 13.8309C30.8099 14.0553 31.9966 14.7355 32.8514 15.751C33.7063 16.7665 34.1741 18.0518 34.1722 19.3792C34.1722 23.1264 28.5514 25 28.5514 25M28.6238 32.5H28.6488M28.2491 45C39.9851 45 49.4991 35.486 49.4991 23.75C49.4991 12.0139 39.9851 2.5 28.2491 2.5C16.513 2.5 6.99906 12.0139 6.99906 23.75C6.99906 26.125 7.38868 28.409 8.10749 30.5415C8.37799 31.344 8.51324 31.7453 8.53763 32.0536C8.56172 32.358 8.54351 32.5714 8.4682 32.8674C8.39193 33.167 8.22355 33.4787 7.88679 34.102L3.79765 41.6709C3.21437 42.7505 2.92274 43.2903 2.98801 43.7069C3.04486 44.0698 3.25843 44.3893 3.572 44.5806C3.93201 44.8002 4.54231 44.7371 5.76292 44.6109L18.5655 43.2875C18.9532 43.2475 19.147 43.2274 19.3237 43.2342C19.4975 43.2408 19.6202 43.2572 19.7896 43.2962C19.9619 43.3359 20.1786 43.4194 20.6119 43.5863C22.9821 44.4994 25.5571 45 28.2491 45Z" stroke="#50FB81" strokeWidth="5" strokeLinecap="round" strokeLinejoin="round"/>
</svg>
