<svg width="121" height="120" viewBox="0 0 121 120" fill="none" xmlns="http://www.w3.org/2000/svg">
<circle cx="60" cy="60" r="60" fill="#1B3426"/>
<path d="M56.2491 52.5056C56.6896 51.2534 57.559 50.1975 58.7034 49.5249C59.8478 48.8524 61.1933 48.6065 62.5016 48.8309C63.8099 49.0553 64.9966 49.7355 65.8514 50.751C66.7063 51.7665 67.1741 53.0518 67.1722 54.3792C67.1722 58.1264 61.5514 60 61.5514 60M61.6238 67.5H61.6488M61.2491 80C72.9851 80 82.4991 70.486 82.4991 58.75C82.4991 47.0139 72.9851 37.5 61.2491 37.5C49.513 37.5 39.9991 47.0139 39.9991 58.75C39.9991 61.125 40.3887 63.409 41.1075 65.5415C41.378 66.344 41.5132 66.7453 41.5376 67.0536C41.5617 67.358 41.5435 67.5714 41.4682 67.8674C41.3919 68.167 41.2236 68.4787 40.8868 69.102L36.7977 76.6709C36.2144 77.7505 35.9227 78.2903 35.988 78.7069C36.0449 79.0698 36.2584 79.3893 36.572 79.5806C36.932 79.8002 37.5423 79.7371 38.7629 79.6109L51.5655 78.2875C51.9532 78.2475 52.147 78.2274 52.3237 78.2342C52.4975 78.2408 52.6202 78.2572 52.7896 78.2962C52.9619 78.3359 53.1786 78.4194 53.6119 78.5863C55.9821 79.4994 58.5571 80 61.2491 80Z" stroke="#50FB81" strokeWidth="5" strokeLinecap="round" strokeLinejoin="round"/>
</svg>
