<svg width="14" height="16" viewBox="0 0 14 16" fill="none" xmlns="http://www.w3.org/2000/svg">
<path d="M9.33854 3.9987V3.46536C9.33854 2.71863 9.33854 2.34526 9.19322 2.06004C9.06539 1.80916 8.86141 1.60519 8.61053 1.47736C8.32531 1.33203 7.95195 1.33203 7.20521 1.33203H6.13854C5.3918 1.33203 5.01844 1.33203 4.73322 1.47736C4.48234 1.60519 4.27836 1.80916 4.15053 2.06004C4.00521 2.34526 4.00521 2.71863 4.00521 3.46536V3.9987M5.33854 7.66536V10.9987M8.00521 7.66536V10.9987M0.671875 3.9987H12.6719M11.3385 3.9987V11.4654C11.3385 12.5855 11.3385 13.1455 11.1206 13.5733C10.9288 13.9497 10.6228 14.2556 10.2465 14.4474C9.8187 14.6654 9.25865 14.6654 8.13854 14.6654H5.20521C4.0851 14.6654 3.52505 14.6654 3.09723 14.4474C2.7209 14.2556 2.41494 13.9497 2.2232 13.5733C2.00521 13.1455 2.00521 12.5855 2.00521 11.4654V3.9987" stroke="black" strokeLinecap="round" strokeLinejoin="round"/>
</svg>
