<svg width="16" height="15" viewBox="0 0 16 15" fill="none" xmlns="http://www.w3.org/2000/svg">
<path d="M7.99998 13.9999H14.75M1.25 13.9999H2.50591C2.87279 13.9999 3.05624 13.9999 3.22887 13.9585C3.38192 13.9217 3.52824 13.8611 3.66245 13.7789C3.81382 13.6861 3.94354 13.5564 4.20296 13.297L13.625 3.87493C14.2463 3.25361 14.2463 2.24625 13.625 1.62493C13.0037 1.00361 11.9963 1.00361 11.375 1.62493L1.95295 11.047C1.69352 11.3064 1.5638 11.4361 1.47104 11.5875C1.3888 11.7217 1.32819 11.868 1.29145 12.0211C1.25 12.1937 1.25 12.3772 1.25 12.744V13.9999Z" stroke="#5A5A5A" strokeWidth="1.5" strokeLinecap="round" strokeLinejoin="round"/>
</svg>
