<svg width="16" height="13" viewBox="0 0 16 13" fill="none" xmlns="http://www.w3.org/2000/svg">
<path d="M1.33594 3.16797L6.77922 6.97826C7.22 7.28681 7.44039 7.44108 7.68011 7.50084C7.89187 7.55362 8.11334 7.55362 8.3251 7.50084C8.56482 7.44108 8.78521 7.28681 9.22599 6.97826L14.6693 3.16797M4.53594 11.8346H11.4693C12.5894 11.8346 13.1494 11.8346 13.5773 11.6166C13.9536 11.4249 14.2595 11.1189 14.4513 10.7426C14.6693 10.3148 14.6693 9.75474 14.6693 8.63463V4.36797C14.6693 3.24786 14.6693 2.68781 14.4513 2.25999C14.2595 1.88366 13.9536 1.5777 13.5773 1.38596C13.1494 1.16797 12.5894 1.16797 11.4693 1.16797H4.53594C3.41583 1.16797 2.85578 1.16797 2.42796 1.38596C2.05163 1.5777 1.74567 1.88366 1.55392 2.25999C1.33594 2.68781 1.33594 3.24786 1.33594 4.36797V8.63463C1.33594 9.75474 1.33594 10.3148 1.55392 10.7426C1.74567 11.1189 2.05163 11.4249 2.42796 11.6166C2.85578 11.8346 3.41583 11.8346 4.53594 11.8346Z" stroke="black" strokeWidth="1.5" strokeLinecap="round" strokeLinejoin="round"/>
</svg>
