<svg width="17" height="16" viewBox="0 0 17 16" fill="none" xmlns="http://www.w3.org/2000/svg">
<path d="M10.5026 5.9987H10.5093M6.5026 5.9987H6.50927M15.1693 7.9987C15.1693 11.6806 12.1845 14.6654 8.5026 14.6654C4.82071 14.6654 1.83594 11.6806 1.83594 7.9987C1.83594 4.3168 4.82071 1.33203 8.5026 1.33203C12.1845 1.33203 15.1693 4.3168 15.1693 7.9987ZM10.8359 5.9987C10.8359 6.18279 10.6867 6.33203 10.5026 6.33203C10.3185 6.33203 10.1693 6.18279 10.1693 5.9987C10.1693 5.8146 10.3185 5.66536 10.5026 5.66536C10.6867 5.66536 10.8359 5.8146 10.8359 5.9987ZM6.83594 5.9987C6.83594 6.18279 6.6867 6.33203 6.5026 6.33203C6.31851 6.33203 6.16927 6.18279 6.16927 5.9987C6.16927 5.8146 6.31851 5.66536 6.5026 5.66536C6.6867 5.66536 6.83594 5.8146 6.83594 5.9987ZM8.5026 11.6654C10.1696 11.6654 11.5026 10.4434 11.5026 9.33203H5.5026C5.5026 10.4434 6.8356 11.6654 8.5026 11.6654Z" stroke="#41C667" strokeLinecap="round" strokeLinejoin="round"/>
</svg>
