<svg width="17" height="16" viewBox="0 0 17 16" fill="none" xmlns="http://www.w3.org/2000/svg">
<g clip-path="url(#clip0_4139_128934)">
<path d="M6.17188 9.9987H11.5052M10.8385 5.9987H10.8452M6.83854 5.9987H6.84521M15.5052 7.9987C15.5052 11.6806 12.5204 14.6654 8.83854 14.6654C5.15664 14.6654 2.17188 11.6806 2.17188 7.9987C2.17188 4.3168 5.15664 1.33203 8.83854 1.33203C12.5204 1.33203 15.5052 4.3168 15.5052 7.9987ZM11.1719 5.9987C11.1719 6.18279 11.0226 6.33203 10.8385 6.33203C10.6544 6.33203 10.5052 6.18279 10.5052 5.9987C10.5052 5.8146 10.6544 5.66536 10.8385 5.66536C11.0226 5.66536 11.1719 5.8146 11.1719 5.9987ZM7.17188 5.9987C7.17188 6.18279 7.02264 6.33203 6.83854 6.33203C6.65445 6.33203 6.50521 6.18279 6.50521 5.9987C6.50521 5.8146 6.65445 5.66536 6.83854 5.66536C7.02264 5.66536 7.17188 5.8146 7.17188 5.9987Z" stroke="#FFDD85" strokeLinecap="round" strokeLinejoin="round"/>
</g>
<defs>
<clipPath id="clip0_4139_128934">
<rect width="16" height="16" fill="white" transform="translate(0.835938)"/>
</clipPath>
</defs>
</svg>
