<svg width="16" height="12" viewBox="0 0 16 12" fill="none" xmlns="http://www.w3.org/2000/svg">
<path d="M1.61342 6.47415C1.52262 6.33039 1.47723 6.25851 1.45182 6.14764C1.43273 6.06436 1.43273 5.93303 1.45182 5.84975C1.47723 5.73889 1.52262 5.66701 1.61341 5.52325C2.36369 4.33526 4.59693 1.33203 8.00027 1.33203C11.4036 1.33203 13.6369 4.33526 14.3871 5.52325C14.4779 5.66701 14.5233 5.73889 14.5487 5.84975C14.5678 5.93303 14.5678 6.06436 14.5487 6.14764C14.5233 6.25851 14.4779 6.33039 14.3871 6.47415C13.6369 7.66214 11.4036 10.6654 8.00027 10.6654C4.59693 10.6654 2.36369 7.66214 1.61342 6.47415Z" stroke="#101010" strokeLinecap="round" strokeLinejoin="round"/>
<path d="M8.00027 7.9987C9.10484 7.9987 10.0003 7.10327 10.0003 5.9987C10.0003 4.89413 9.10484 3.9987 8.00027 3.9987C6.8957 3.9987 6.00027 4.89413 6.00027 5.9987C6.00027 7.10327 6.8957 7.9987 8.00027 7.9987Z" stroke="#101010" strokeLinecap="round" strokeLinejoin="round"/>
</svg>
