<svg width="126" height="36" viewBox="0 0 126 36" fill="none" xmlns="http://www.w3.org/2000/svg">
<path d="M121.332 36H4.66569C2.10019 36 -0.000976562 33.9739 -0.000976562 31.5V4.5C-0.000976562 2.02613 2.10019 1.90258e-06 4.66569 1.90258e-06H121.332C123.898 1.90258e-06 125.999 2.02613 125.999 4.5V31.5C125.999 33.9739 123.898 36 121.332 36Z" fill="white"/>
<path d="M121.332 0.721125C123.493 0.721125 125.251 2.4165 125.251 4.5V31.5C125.251 33.5835 123.493 35.2789 121.332 35.2789H4.66569C2.50502 35.2789 0.746856 33.5835 0.746856 31.5V4.5C0.746856 2.4165 2.50502 0.721125 4.66569 0.721125H121.332ZM121.332 1.90258e-06H4.66569C2.10019 1.90258e-06 -0.000976562 2.02613 -0.000976562 4.5V31.5C-0.000976562 33.9739 2.10019 36 4.66569 36H121.332C123.898 36 125.999 33.9739 125.999 31.5V4.5C125.999 2.02613 123.898 1.90258e-06 121.332 1.90258e-06Z" fill="#A6A6A6"/>
<path d="M9.03928 6.78502C8.76511 7.06177 8.60645 7.49264 8.60645 8.05064V27.9541C8.60645 28.5121 8.76511 28.943 9.03928 29.2198L9.10694 29.2805L20.6733 18.1318V17.8685L9.10694 6.71977L9.03928 6.78502Z" fill="black"/>
<path d="M25.9244 21.8505L22.0732 18.1324V17.8691L25.9291 14.151L26.0154 14.1994L30.5817 16.7048C31.8849 17.4158 31.8849 18.5858 30.5817 19.3013L26.0154 21.8021L25.9244 21.8505Z" fill="black"/>
<path d="M25.3154 22.4942L21.3733 18.6928L9.73926 29.9124C10.1721 30.3512 10.8779 30.404 11.6806 29.9653L25.3154 22.4942Z" fill="black"/>
<path d="M25.3154 13.507L11.6806 6.03591C10.8779 5.60166 10.1721 5.65454 9.73926 6.09329L21.3733 17.3084L25.3154 13.507Z" fill="black"/>
<path d="M44.2554 9.21922C44.2554 9.97072 44.0221 10.5726 43.5624 11.0215C43.0339 11.5536 42.3456 11.8213 41.5021 11.8213C40.6959 11.8213 40.0076 11.5491 39.4429 11.0125C38.8771 10.468 38.5947 9.79972 38.5947 8.99984C38.5947 8.19997 38.8771 7.53172 39.4429 6.99172C40.0076 6.4506 40.6959 6.17834 41.5021 6.17834C41.9034 6.17834 42.2861 6.25822 42.6512 6.40672C43.0152 6.55634 43.3116 6.75884 43.5262 7.00859L43.0386 7.48335C42.6641 7.05697 42.1542 6.8466 41.5021 6.8466C40.9141 6.8466 40.4042 7.04459 39.9714 7.44397C39.5432 7.84447 39.3286 8.36309 39.3286 8.99984C39.3286 9.63659 39.5432 10.1597 39.9714 10.5602C40.4042 10.9551 40.9141 11.1576 41.5021 11.1576C42.1262 11.1576 42.6512 10.9551 43.0654 10.5557C43.3384 10.2913 43.4936 9.92684 43.5344 9.46109H41.5021V8.81084H44.2134C44.2461 8.95147 44.2554 9.08759 44.2554 9.21922Z" fill="black" stroke="black" strokeWidth="0.173333" stroke-miterlimit="10"/>
<path d="M48.5569 6.96499H46.0101V8.67499H48.3061V9.32524H46.0101V11.0352H48.5569V11.6979H45.2891V6.30237H48.5569V6.96499Z" fill="black" stroke="black" strokeWidth="0.173333" stroke-miterlimit="10"/>
<path d="M51.5927 11.6979H50.8717V6.96499H49.3096V6.30237H53.1561V6.96499H51.5927V11.6979Z" fill="black" stroke="black" strokeWidth="0.173333" stroke-miterlimit="10"/>
<path d="M55.9395 11.6979V6.30237H56.6593V11.6979H55.9395Z" fill="black" stroke="black" strokeWidth="0.173333" stroke-miterlimit="10"/>
<path d="M59.8505 11.6979H59.1354V6.96499H57.5674V6.30237H61.4185V6.96499H59.8505V11.6979Z" fill="black" stroke="black" strokeWidth="0.173333" stroke-miterlimit="10"/>
<path d="M68.701 11.0035C68.1492 11.5491 67.4655 11.8213 66.65 11.8213C65.8299 11.8213 65.1462 11.5491 64.5944 11.0035C64.0437 10.459 63.7695 9.79072 63.7695 8.99984C63.7695 8.20897 64.0437 7.54072 64.5944 6.99622C65.1462 6.45059 65.8299 6.17834 66.65 6.17834C67.4609 6.17834 68.1445 6.45059 68.6964 7.00072C69.2517 7.54972 69.5259 8.21347 69.5259 8.99984C69.5259 9.79072 69.2517 10.459 68.701 11.0035ZM65.1275 10.5512C65.5429 10.9551 66.048 11.1576 66.65 11.1576C67.2474 11.1576 67.7572 10.9551 68.1679 10.5512C68.582 10.1473 68.792 9.62872 68.792 8.99984C68.792 8.37097 68.582 7.85235 68.1679 7.44847C67.7572 7.0446 67.2474 6.84209 66.65 6.84209C66.048 6.84209 65.5429 7.0446 65.1275 7.44847C64.7134 7.85235 64.5034 8.37097 64.5034 8.99984C64.5034 9.62872 64.7134 10.1473 65.1275 10.5512Z" fill="black" stroke="black" strokeWidth="0.173333" stroke-miterlimit="10"/>
<path d="M70.5371 11.6979V6.30237H71.4121L74.1328 10.4986H74.1643L74.1328 9.46137V6.30237H74.8526V11.6979H74.1013L71.2523 7.29462H71.2208L71.2523 8.33637V11.6979H70.5371Z" fill="black" stroke="black" strokeWidth="0.173333" stroke-miterlimit="10"/>
<path d="M63.5924 19.5772C61.4002 19.5772 59.6094 21.1859 59.6094 23.4056C59.6094 25.6072 61.4002 27.2328 63.5924 27.2328C65.7892 27.2328 67.58 25.6072 67.58 23.4056C67.58 21.1859 65.7892 19.5772 63.5924 19.5772ZM63.5924 25.7253C62.3895 25.7253 61.3547 24.7679 61.3547 23.4056C61.3547 22.0252 62.3895 21.0847 63.5924 21.0847C64.7952 21.0847 65.8347 22.0252 65.8347 23.4056C65.8347 24.7679 64.7952 25.7253 63.5924 25.7253ZM54.9019 19.5772C52.705 19.5772 50.9189 21.1859 50.9189 23.4056C50.9189 25.6072 52.705 27.2328 54.9019 27.2328C57.0975 27.2328 58.8849 25.6072 58.8849 23.4056C58.8849 21.1859 57.0975 19.5772 54.9019 19.5772ZM54.9019 25.7253C53.6979 25.7253 52.6595 24.7679 52.6595 23.4056C52.6595 22.0252 53.6979 21.0847 54.9019 21.0847C56.1047 21.0847 57.1395 22.0252 57.1395 23.4056C57.1395 24.7679 56.1047 25.7253 54.9019 25.7253ZM44.5605 20.7506V22.3773H48.589C48.4712 23.2863 48.1562 23.9546 47.6732 24.4203C47.0852 24.9828 46.1694 25.6072 44.5605 25.6072C42.0814 25.6072 40.14 23.6778 40.14 21.2872C40.14 18.8966 42.0814 16.9672 44.5605 16.9672C45.901 16.9672 46.8764 17.4723 47.5962 18.1271L48.785 16.9807C47.7782 16.0537 46.4389 15.3416 44.5605 15.3416C41.1609 15.3416 38.3037 18.0089 38.3037 21.2872C38.3037 24.5654 41.1609 27.2328 44.5605 27.2328C46.398 27.2328 47.7782 26.6523 48.8632 25.5633C49.975 24.4912 50.3215 22.9837 50.3215 21.7664C50.3215 21.3884 50.2889 21.0408 50.2305 20.7506H44.5605ZM86.8475 22.0117C86.5197 21.1556 85.5082 19.5772 83.4479 19.5772C81.4062 19.5772 79.7064 21.1286 79.7064 23.4056C79.7064 25.5498 81.3887 27.2328 83.6439 27.2328C85.4674 27.2328 86.5197 26.1607 86.9525 25.5363L85.5992 24.6667C85.1477 25.3034 84.5329 25.7253 83.6439 25.7253C82.7607 25.7253 82.1272 25.3349 81.7212 24.5654L87.0307 22.4471L86.8475 22.0117ZM81.4342 23.2863C81.3887 21.8103 82.623 21.0543 83.5074 21.0543C84.2004 21.0543 84.7884 21.3884 84.9844 21.8666L81.4342 23.2863ZM77.1187 26.9999H78.864V15.7499H77.1187V26.9999ZM74.2604 20.4299H74.202C73.81 19.9822 73.0622 19.5772 72.1149 19.5772C70.1269 19.5772 68.3092 21.2602 68.3092 23.4179C68.3092 25.5633 70.1269 27.2328 72.1149 27.2328C73.0622 27.2328 73.81 26.8244 74.202 26.3632H74.2604V26.9122C74.2604 28.3758 73.4495 29.1622 72.1417 29.1622C71.0754 29.1622 70.4139 28.4197 70.1409 27.7953L68.623 28.4062C69.0605 29.4209 70.219 30.6697 72.1417 30.6697C74.188 30.6697 75.9147 29.5087 75.9147 26.6838V19.8101H74.2604V20.4299ZM72.2642 25.7253C71.0614 25.7253 70.0545 24.7544 70.0545 23.4179C70.0545 22.0691 71.0614 21.0847 72.2642 21.0847C73.4495 21.0847 74.384 22.0691 74.384 23.4179C74.384 24.7544 73.4495 25.7253 72.2642 25.7253ZM95.0189 15.7499H90.8445V26.9999H92.5852V22.7373H95.0189C96.952 22.7373 98.8479 21.3884 98.8479 19.2431C98.8479 17.0988 96.9474 15.7499 95.0189 15.7499ZM95.0644 21.1724H92.5852V17.3148H95.0644C96.364 17.3148 97.106 18.3554 97.106 19.2431C97.106 20.1138 96.364 21.1724 95.0644 21.1724ZM105.825 19.5558C104.567 19.5558 103.259 20.0913 102.721 21.2782L104.266 21.9026C104.598 21.2782 105.21 21.0757 105.856 21.0757C106.759 21.0757 107.675 21.5988 107.689 22.5224V22.6406C107.374 22.4651 106.7 22.2052 105.87 22.2052C104.206 22.2052 102.511 23.0883 102.511 24.7364C102.511 26.2439 103.874 27.2148 105.406 27.2148C106.577 27.2148 107.223 26.7052 107.629 26.1123H107.689V26.9819H109.37V22.6664C109.37 20.6718 107.825 19.5558 105.825 19.5558ZM105.615 25.7208C105.045 25.7208 104.252 25.4486 104.252 24.7679C104.252 23.8972 105.241 23.5631 106.098 23.5631C106.864 23.5631 107.223 23.7262 107.689 23.9411C107.552 24.9828 106.623 25.7208 105.615 25.7208ZM115.495 19.8022L113.494 24.6791H113.435L111.366 19.8022H109.489L112.597 26.6174L110.824 30.4098H112.643L117.432 19.8022H115.495ZM99.8045 26.9999H101.55V15.7499H99.8045V26.9999Z" fill="black"/>
</svg>
