<svg width="102" height="17" viewBox="0 0 102 17" fill="none" xmlns="http://www.w3.org/2000/svg">
<path d="M0.996 13V4.624H4.08C5.464 4.624 6.156 5.42 6.156 7.012C6.156 8.604 5.464 9.4 4.08 9.4H1.956V13H0.996ZM1.956 8.56H4.056C4.768 8.56 5.124 8.176 5.124 7.408V6.616C5.124 5.848 4.768 5.464 4.056 5.464H1.956V8.56ZM9.66244 13.144C9.30244 13.144 8.96644 13.084 8.65444 12.964C8.34244 12.844 8.07444 12.652 7.85044 12.388C7.62644 12.124 7.45044 11.788 7.32244 11.38C7.19444 10.972 7.13044 10.48 7.13044 9.904C7.13044 9.328 7.19444 8.836 7.32244 8.428C7.45044 8.02 7.62644 7.684 7.85044 7.42C8.07444 7.156 8.34244 6.964 8.65444 6.844C8.96644 6.724 9.30244 6.664 9.66244 6.664C10.0224 6.664 10.3584 6.724 10.6704 6.844C10.9824 6.964 11.2504 7.156 11.4744 7.42C11.6984 7.684 11.8744 8.02 12.0024 8.428C12.1304 8.836 12.1944 9.328 12.1944 9.904C12.1944 10.48 12.1304 10.972 12.0024 11.38C11.8744 11.788 11.6984 12.124 11.4744 12.388C11.2504 12.652 10.9824 12.844 10.6704 12.964C10.3584 13.084 10.0224 13.144 9.66244 13.144ZM9.66244 12.328C10.1584 12.328 10.5384 12.18 10.8024 11.884C11.0744 11.588 11.2104 11.136 11.2104 10.528V9.28C11.2104 8.672 11.0744 8.22 10.8024 7.924C10.5384 7.628 10.1584 7.48 9.66244 7.48C9.16644 7.48 8.78244 7.628 8.51044 7.924C8.24644 8.22 8.11444 8.672 8.11444 9.28V10.528C8.11444 11.136 8.24644 11.588 8.51044 11.884C8.78244 12.18 9.16644 12.328 9.66244 12.328ZM13.1907 6.808H14.0787L14.6787 9.496L15.2067 12.196H15.3267L15.9387 9.496L16.5627 6.808H17.6187L18.2427 9.496L18.8547 12.196H18.9747L19.5027 9.496L20.1027 6.808H20.9667L19.4787 13H18.3267L17.5707 10L17.1507 7.732H17.0307L16.5867 10L15.8307 13H14.6787L13.1907 6.808ZM24.451 13.144C24.091 13.144 23.755 13.084 23.443 12.964C23.131 12.844 22.863 12.652 22.639 12.388C22.415 12.124 22.239 11.788 22.111 11.38C21.983 10.972 21.919 10.48 21.919 9.904C21.919 9.328 21.983 8.836 22.111 8.428C22.239 8.02 22.415 7.684 22.639 7.42C22.863 7.156 23.131 6.964 23.443 6.844C23.755 6.724 24.091 6.664 24.451 6.664C24.811 6.664 25.139 6.724 25.435 6.844C25.739 6.964 25.995 7.156 26.203 7.42C26.411 7.684 26.571 8.02 26.683 8.428C26.803 8.836 26.863 9.328 26.863 9.904V10.132H22.891V10.528C22.891 11.136 23.027 11.592 23.299 11.896C23.579 12.192 23.963 12.34 24.451 12.34C24.867 12.34 25.207 12.252 25.471 12.076C25.735 11.892 25.943 11.62 26.095 11.26L26.719 11.716C26.527 12.14 26.243 12.484 25.867 12.748C25.499 13.012 25.027 13.144 24.451 13.144ZM24.451 7.432C23.955 7.432 23.571 7.588 23.299 7.9C23.027 8.212 22.891 8.672 22.891 9.28V9.436H25.891V9.28C25.891 8.048 25.411 7.432 24.451 7.432ZM28.5204 13V6.808H29.4324V7.96H29.5524C29.6564 7.6 29.8324 7.32 30.0804 7.12C30.3364 6.912 30.6684 6.808 31.0764 6.808H31.4124V7.732H30.8124C30.3804 7.732 30.0404 7.828 29.7924 8.02C29.5524 8.212 29.4324 8.5 29.4324 8.884V13H28.5204ZM34.8334 13.144C34.4734 13.144 34.1374 13.084 33.8254 12.964C33.5134 12.844 33.2454 12.652 33.0214 12.388C32.7974 12.124 32.6214 11.788 32.4934 11.38C32.3654 10.972 32.3014 10.48 32.3014 9.904C32.3014 9.328 32.3654 8.836 32.4934 8.428C32.6214 8.02 32.7974 7.684 33.0214 7.42C33.2454 7.156 33.5134 6.964 33.8254 6.844C34.1374 6.724 34.4734 6.664 34.8334 6.664C35.1934 6.664 35.5214 6.724 35.8174 6.844C36.1214 6.964 36.3774 7.156 36.5854 7.42C36.7934 7.684 36.9534 8.02 37.0654 8.428C37.1854 8.836 37.2454 9.328 37.2454 9.904V10.132H33.2734V10.528C33.2734 11.136 33.4094 11.592 33.6814 11.896C33.9614 12.192 34.3454 12.34 34.8334 12.34C35.2494 12.34 35.5894 12.252 35.8534 12.076C36.1174 11.892 36.3254 11.62 36.4774 11.26L37.1014 11.716C36.9094 12.14 36.6254 12.484 36.2494 12.748C35.8814 13.012 35.4094 13.144 34.8334 13.144ZM34.8334 7.432C34.3374 7.432 33.9534 7.588 33.6814 7.9C33.4094 8.212 33.2734 8.672 33.2734 9.28V9.436H36.2734V9.28C36.2734 8.048 35.7934 7.432 34.8334 7.432ZM42.4548 11.992H42.3348C42.2148 12.4 42.0188 12.696 41.7468 12.88C41.4828 13.056 41.1588 13.144 40.7748 13.144C40.4068 13.144 40.0828 13.068 39.8028 12.916C39.5228 12.764 39.2868 12.548 39.0948 12.268C38.9028 11.988 38.7588 11.648 38.6628 11.248C38.5668 10.848 38.5188 10.4 38.5188 9.904C38.5188 9.408 38.5668 8.96 38.6628 8.56C38.7588 8.16 38.9028 7.82 39.0948 7.54C39.2868 7.26 39.5228 7.044 39.8028 6.892C40.0828 6.74 40.4068 6.664 40.7748 6.664C41.1588 6.664 41.4828 6.756 41.7468 6.94C42.0188 7.116 42.2148 7.408 42.3348 7.816H42.4548V4.12H43.3668V13H42.4548V11.992ZM41.0508 12.328C41.2428 12.328 41.4228 12.3 41.5908 12.244C41.7668 12.188 41.9148 12.108 42.0348 12.004C42.1628 11.9 42.2628 11.776 42.3348 11.632C42.4148 11.488 42.4548 11.328 42.4548 11.152V8.656C42.4548 8.48 42.4148 8.32 42.3348 8.176C42.2628 8.032 42.1628 7.908 42.0348 7.804C41.9148 7.7 41.7668 7.62 41.5908 7.564C41.4228 7.508 41.2428 7.48 41.0508 7.48C40.5468 7.48 40.1628 7.64 39.8988 7.96C39.6348 8.272 39.5028 8.712 39.5028 9.28V10.528C39.5028 11.096 39.6348 11.54 39.8988 11.86C40.1628 12.172 40.5468 12.328 41.0508 12.328ZM48.2187 4.12H49.1307V7.816H49.2507C49.3707 7.408 49.5627 7.116 49.8267 6.94C50.0987 6.756 50.4267 6.664 50.8107 6.664C51.1787 6.664 51.5027 6.74 51.7827 6.892C52.0627 7.044 52.2987 7.26 52.4907 7.54C52.6827 7.82 52.8267 8.16 52.9227 8.56C53.0187 8.96 53.0667 9.408 53.0667 9.904C53.0667 10.4 53.0187 10.848 52.9227 11.248C52.8267 11.648 52.6827 11.988 52.4907 12.268C52.2987 12.548 52.0627 12.764 51.7827 12.916C51.5027 13.068 51.1787 13.144 50.8107 13.144C50.4267 13.144 50.0987 13.056 49.8267 12.88C49.5627 12.696 49.3707 12.4 49.2507 11.992H49.1307V13H48.2187V4.12ZM50.5347 12.328C51.0387 12.328 51.4227 12.172 51.6867 11.86C51.9507 11.54 52.0827 11.096 52.0827 10.528V9.28C52.0827 8.712 51.9507 8.272 51.6867 7.96C51.4227 7.64 51.0387 7.48 50.5347 7.48C50.3427 7.48 50.1587 7.508 49.9827 7.564C49.8147 7.62 49.6667 7.7 49.5387 7.804C49.4187 7.908 49.3187 8.032 49.2387 8.176C49.1667 8.32 49.1307 8.48 49.1307 8.656V11.152C49.1307 11.328 49.1667 11.488 49.2387 11.632C49.3187 11.776 49.4187 11.9 49.5387 12.004C49.6667 12.108 49.8147 12.188 49.9827 12.244C50.1587 12.3 50.3427 12.328 50.5347 12.328ZM58.0414 6.808H58.9294L56.4814 14.584C56.4334 14.744 56.3814 14.876 56.3254 14.98C56.2694 15.092 56.1974 15.176 56.1094 15.232C56.0294 15.296 55.9294 15.34 55.8094 15.364C55.6974 15.388 55.5534 15.4 55.3774 15.4H54.7054V14.596H55.6534L56.0134 13.336L53.9614 6.808H54.8734L55.8214 9.928L56.3974 12.196H56.5174L57.0934 9.928L58.0414 6.808Z" fill="black"/>
<path fill-rule="evenodd" clip-rule="evenodd" d="M70.4475 1.91858C71.3702 1.91927 71.854 1.93166 72.2659 2.15212C72.6202 2.34171 72.8759 2.6609 73.2664 3.23459H68.9692L69.4184 2.52832L69.4184 2.5283C69.608 2.23012 69.7029 2.08101 69.8508 1.99978C69.9869 1.92503 70.1474 1.91906 70.4475 1.91858ZM74.8791 5.65073L74.1457 4.55064H70.5289C70.1755 4.55064 69.9988 4.55064 69.8508 4.63188C69.7029 4.71311 69.608 4.86222 69.4184 5.16041L69.4184 5.16042L68.9692 5.86669H75.0229L74.8791 5.65073ZM75.7987 7.18274C75.8933 7.41262 75.9406 7.62222 75.9406 7.84077C75.9406 8.05932 75.8933 8.26892 75.7987 8.4988H68.9692L69.4184 7.79253C69.608 7.49433 69.7029 7.34522 69.8508 7.26398C69.9988 7.18274 70.1755 7.18274 70.5289 7.18274H75.7987ZM74.1457 11.1309H68.9692L69.4184 10.4246C69.608 10.1264 69.7029 9.97732 69.8508 9.89609C69.9988 9.81485 70.1755 9.81485 70.5289 9.81485H75.0229L74.8791 10.0308L74.1457 11.1309ZM72.2659 13.5294C71.8295 13.763 71.3123 13.763 70.2779 13.763H68.9692L69.4184 13.0567C69.608 12.7585 69.7029 12.6094 69.8508 12.5282C69.9988 12.447 70.1755 12.447 70.5289 12.447H73.2664C72.8759 13.0206 72.6202 13.3398 72.2659 13.5294ZM67.6627 3.23711H67.6627H68.9714L68.5222 3.94339C68.3326 4.24159 68.2377 4.39069 68.0898 4.47193C67.9419 4.55317 67.7652 4.55317 67.4118 4.55317H64.6742C65.0647 3.97948 65.3204 3.66028 65.6747 3.4707C66.1112 3.23711 66.6283 3.23711 67.6627 3.23711ZM63.795 5.86922H68.9714L68.5222 6.57549L68.5222 6.5755C68.3326 6.87369 68.2377 7.0228 68.0898 7.10403C67.9419 7.18527 67.7652 7.18527 67.4118 7.18527H62.9177L63.0616 6.96931L63.795 5.86922ZM62.1419 9.81737C62.0473 9.5875 62 9.3779 62 9.15935C62 8.9408 62.0473 8.7312 62.1419 8.50132H68.9714L68.5222 9.20759C68.3326 9.50579 68.2377 9.6549 68.0898 9.73614C67.9419 9.81737 67.7652 9.81737 67.4118 9.81737H62.1419ZM63.0616 11.3494L63.795 12.4495H67.4118C67.7652 12.4495 67.9419 12.4495 68.0898 12.3682C68.2377 12.287 68.3326 12.1379 68.5222 11.8397L68.5222 11.8397L68.9714 11.1334H62.9177L63.0616 11.3494ZM67.4931 15.0815C66.5705 15.0808 66.0866 15.0685 65.6747 14.848C65.3204 14.6584 65.0647 14.3392 64.6742 13.7655H68.9714L68.5222 14.4718L68.5222 14.4718C68.3326 14.77 68.2377 14.9191 68.0898 15.0003C67.9537 15.0751 67.7932 15.0811 67.4931 15.0815ZM79.1912 4.93689L79.1528 4.80059H77.9261L79.106 12.2034H80.469L81.6914 4.80059H80.4221L80.3838 5.02208L79.7875 9.62218L79.1912 4.93689ZM82.3857 4.80059H82.1216V5.06893V11.935V12.2034H82.3857H84.7709H85.0393V11.935V11.2493V10.9852H84.7709H83.3398V9.11106H84.0852H84.3492V8.84698V8.16122V7.89288H84.0852H83.3398V6.02303H84.7709H85.0393V5.75469V5.06893V4.80059H84.7709H82.3857ZM85.6398 4.80059H85.9039H88.2892H88.5575V5.06893V5.75469V6.02303H88.2892H86.858V7.89288H87.6034H87.8675V8.16122V8.84698V9.11106H87.6034H86.858V10.9852H88.2892H88.5575V11.2493V11.935V12.2034H88.2892H85.9039H85.6398V11.935V5.06893V4.80059ZM89.4221 4.80059H89.1581V5.06893V11.935V12.2034H89.4221H90.1122H90.3762V11.935V9.11106H91.2537V11.935V12.2034H91.522H92.2078H92.4761V11.935V5.06893V4.80059H92.2078H91.522H91.2537V5.06893V7.89288H90.3762V5.06893V4.80059H90.1122H89.4221ZM93.2002 4.80059H93.4643H94.1543H94.4184V5.06893V11.935V12.2034H94.1543H93.4643H93.2002V11.935V5.06893V4.80059ZM96.1519 4.93689L96.1136 4.80059H94.8869L96.0667 12.2034H97.4297L98.6522 4.80059H97.3829L97.3445 5.02208L96.7482 9.62218L96.1519 4.93689ZM99.0824 4.80059H99.3464H101.732H102V5.06893V5.75469V6.02303H101.732H100.301V7.89288H101.046H101.31V8.16122V8.84698V9.11106H101.046H100.301V10.9852H101.732H102V11.2493V11.935V12.2034H101.732H99.3464H99.0824V11.935V5.06893V4.80059Z" fill="black"/>
</svg>
