<svg width="16" height="16" viewBox="0 0 16 16" fill="none" xmlns="http://www.w3.org/2000/svg">
<path d="M8.54329 8.4981L2.22448 9.109L0.561704 14.4269C0.46256 14.7413 0.559815 15.085 0.810023 15.3003C1.05929 15.5155 1.41338 15.5609 1.70988 15.4164L15.5578 8.71059C15.8289 8.5784 16.0007 8.30363 16.0007 8.00242C16.0007 7.70121 15.8288 7.42645 15.5578 7.29425L1.7193 0.583602C1.42281 0.439136 1.06874 0.484459 0.81945 0.699742C0.569221 0.915027 0.471977 1.25778 0.571131 1.57221L2.2339 6.89006L8.5404 7.50191C8.79533 7.5274 8.98985 7.74174 8.98985 7.99762C8.98985 8.25352 8.79534 8.46784 8.5404 8.49334L8.54329 8.4981Z" fill="#0B1F14"/>
</svg>
