<svg width="20" height="22" viewBox="0 0 20 22" fill="none" xmlns="http://www.w3.org/2000/svg">
<path d="M15.1189 17C17.4623 15.4151 19 12.7779 19 9.78496C19 4.9333 14.9704 1 10 1C5.02958 1 1 4.9333 1 9.78496C1 12.7779 2.53771 15.4151 4.88113 17M6.35967 13C5.51875 12.15 5 11.0086 5 9.75054C5 7.12711 7.23881 5 10 5C12.7612 5 15 7.12711 15 9.75054C15 11.0095 14.4813 12.15 13.6403 13M10 21C8.89543 21 8 20.1046 8 19V17C8 15.8954 8.89543 15 10 15C11.1046 15 12 15.8954 12 17V19C12 20.1046 11.1046 21 10 21ZM11 10C11 10.5523 10.5523 11 10 11C9.44772 11 9 10.5523 9 10C9 9.44772 9.44772 9 10 9C10.5523 9 11 9.44772 11 10Z" stroke="black" strokeWidth="2" strokeLinecap="round" strokeLinejoin="round"/>
</svg>
