<svg width="23" height="21" viewBox="0 0 23 21" fill="none" xmlns="http://www.w3.org/2000/svg">
<path d="M14.1194 20H2.88062C2.39514 20 2 19.6559 2 19.2328V1.76724C2 1.34502 2.39514 1 2.88062 1H14.1194C14.6049 1 15 1.34411 15 1.76724V19.2328C15 19.6559 14.6049 20 14.1194 20ZM2.88062 1.40684C2.65239 1.40684 2.46698 1.56849 2.46698 1.76724V19.2328C2.46698 19.4315 2.65239 19.5947 2.88062 19.5947H14.1194C14.3476 19.5947 14.533 19.433 14.533 19.2328V1.76724C14.533 1.56849 14.3476 1.40684 14.1194 1.40684H2.88062Z" fill="#808080" stroke="#808080"/>
<path d="M5 10.5C5 10.2244 5.12731 10 5.28395 10H11.7161C11.8727 10 12 10.2244 12 10.5C12 10.7756 11.8727 11 11.7161 11H5.28395C5.12731 11 5 10.7756 5 10.5Z" fill="#808080" stroke="#808080" strokeWidth="0.5"/>
<path d="M8.5 7C8.77562 7 9 7.12731 9 7.28395L9 13.7161C9 13.8727 8.77562 14 8.5 14C8.22438 14 8 13.8727 8 13.7161L8 7.28395C8 7.12731 8.22438 7 8.5 7Z" fill="#808080" stroke="#808080" strokeWidth="0.5"/>
<path d="M17.5004 18C17.566 18 17.631 17.995 17.6916 17.9852C17.7522 17.9754 17.8073 17.9611 17.8537 17.943C17.9 17.925 17.9368 17.9036 17.9618 17.88C17.9869 17.8564 17.9997 17.8311 17.9996 17.8056V3.20206C18.0023 3.17591 17.9913 3.14981 17.9674 3.12535C17.9435 3.10088 17.9071 3.07854 17.8605 3.05967C17.8138 3.0408 17.7578 3.02579 17.6959 3.01554C17.6339 3.00529 17.5673 3 17.5 3C17.4327 3 17.3661 3.00529 17.3041 3.01554C17.2422 3.02579 17.1862 3.0408 17.1395 3.05967C17.0929 3.07854 17.0565 3.10088 17.0326 3.12535C17.0087 3.14981 16.9977 3.17591 17.0004 3.20206V17.8056C17.0004 17.8572 17.0531 17.9066 17.1468 17.9431C17.2406 17.9795 17.3678 18 17.5004 18Z" fill="#808080" stroke="#808080" strokeWidth="0.5"/>
<path d="M20.4795 16C20.6067 16 20.7286 15.9809 20.8185 15.9468C20.9085 15.9128 20.959 15.8666 20.959 15.8185L21 5.18205C21 5.13387 20.9495 5.08765 20.8597 5.05352C20.7698 5.0194 20.6478 5.00015 20.5205 5C20.3933 5 20.2714 5.01912 20.1815 5.05316C20.0915 5.08719 20.041 5.13336 20.041 5.18149L20 15.8179C19.9999 15.8418 20.0122 15.8655 20.0363 15.8875C20.0603 15.9096 20.0956 15.9297 20.1401 15.9466C20.1847 15.9635 20.2375 15.9769 20.2958 15.9861C20.354 15.9952 20.4164 16 20.4795 16Z" fill="#808080" stroke="#808080" strokeWidth="0.5"/>
</svg>
