<svg width="4" height="18" viewBox="0 0 4 18" fill="none" xmlns="http://www.w3.org/2000/svg">
<path d="M1 8.69141C1 9.24369 1.44771 9.69141 2 9.69141C2.55228 9.69141 3 9.24369 3 8.69141C3 8.13912 2.55228 7.69141 2 7.69141C1.44771 7.69141 1 8.13912 1 8.69141Z" fill="black"/>
<path d="M0.999999 15.6914C0.999999 16.2437 1.44771 16.6914 2 16.6914C2.55228 16.6914 3 16.2437 3 15.6914C3 15.1391 2.55228 14.6914 2 14.6914C1.44771 14.6914 0.999999 15.1391 0.999999 15.6914Z" fill="black"/>
<path d="M1 1.69141C1 2.24369 1.44772 2.69141 2 2.69141C2.55228 2.69141 3 2.24369 3 1.69141C3 1.13912 2.55228 0.691406 2 0.691406C1.44772 0.691406 1 1.13912 1 1.69141Z" fill="black"/>
<path d="M1 8.69141C1 9.24369 1.44771 9.69141 2 9.69141C2.55228 9.69141 3 9.24369 3 8.69141C3 8.13912 2.55228 7.69141 2 7.69141C1.44771 7.69141 1 8.13912 1 8.69141Z" stroke="black" strokeLinecap="round" strokeLinejoin="round"/>
<path d="M0.999999 15.6914C0.999999 16.2437 1.44771 16.6914 2 16.6914C2.55228 16.6914 3 16.2437 3 15.6914C3 15.1391 2.55228 14.6914 2 14.6914C1.44771 14.6914 0.999999 15.1391 0.999999 15.6914Z" stroke="black" strokeLinecap="round" strokeLinejoin="round"/>
<path d="M1 1.69141C1 2.24369 1.44772 2.69141 2 2.69141C2.55228 2.69141 3 2.24369 3 1.69141C3 1.13912 2.55228 0.691406 2 0.691406C1.44772 0.691406 1 1.13912 1 1.69141Z" stroke="black" strokeLinecap="round" strokeLinejoin="round"/>
</svg>
