<svg width="40" height="30" viewBox="0 0 40 30" fill="none" xmlns="http://www.w3.org/2000/svg">
<path fill-rule="evenodd" clip-rule="evenodd" d="M21.5001 29.5H30.5C35.7467 29.5 40 25.2467 40 20C40 15.2115 36.4571 11.2504 31.8497 10.5951C30.937 4.87297 25.9792 0.5 20 0.5C13.3726 0.5 8 5.87258 8 12.5L8.00001 12.5145C3.53831 12.7733 0 16.4734 0 21C0 25.6944 3.80558 29.5 8.5 29.5H18.5001V17.6213L15.9143 20.2071C15.7191 20.4024 15.4025 20.4024 15.2072 20.2071L13.793 18.7929C13.5977 18.5976 13.5977 18.281 13.793 18.0858L18.9395 12.9393C19.5252 12.3536 20.475 12.3536 21.0608 12.9393L26.2072 18.0858C26.4025 18.281 26.4025 18.5976 26.2072 18.7929L24.793 20.2071C24.5977 20.4024 24.2812 20.4024 24.0859 20.2071L21.5001 17.6213V29.5Z" fill="#161823" fill-opacity="0.34"/>
</svg>
