<svg width="17" height="17" viewBox="0 0 17 17" fill="none" xmlns="http://www.w3.org/2000/svg">
<path d="M1.93346 12.0449C1.3183 10.8992 0.996069 9.61637 0.996069 8.31395C0.996069 3.99539 4.50153 0.489624 8.79791 0.489624C10.8875 0.489624 12.8404 1.30241 14.3149 2.7811C15.7893 4.25979 16.5997 6.22811 16.5997 8.32374C16.5997 12.6325 13.0943 16.1481 8.79791 16.1481C7.55782 16.1481 6.32749 15.8445 5.23386 15.2863L0.78125 16.3341L1.93346 12.0449Z" fill="#00E676"/>
<path d="M8.70017 0.979264C10.6531 0.979264 12.4888 1.74309 13.8754 3.13365C15.2522 4.5242 16.0138 6.36522 16.0138 8.32375C16.0138 12.3681 12.7329 15.6584 8.70017 15.6584C7.47961 15.6584 6.26881 15.3549 5.20448 14.7673L1.36703 15.6682L2.36301 11.9764C1.71855 10.86 1.38656 9.60658 1.38656 8.31395C1.38656 4.26959 4.66743 0.979264 8.70017 0.979264ZM10.6726 11.8393C10.8288 11.8393 10.9362 11.8197 11.0437 11.8099C11.3756 11.7806 12.1275 11.3693 12.274 10.9384C12.4302 10.5075 12.4302 10.1452 12.3814 10.0668C12.3326 9.9885 12.2154 9.94933 12.0299 9.8514C11.8443 9.76327 10.946 9.3128 10.78 9.25405C10.7117 9.22467 10.6433 9.20508 10.5847 9.20508C10.5066 9.20508 10.4383 9.24426 10.3699 9.34218C10.2527 9.52824 9.90121 9.93953 9.7938 10.057C9.73521 10.1256 9.67662 10.1648 9.59851 10.1648C9.53992 10.1648 9.48133 10.1452 9.40322 10.106C9.21769 10.0179 8.63182 9.82202 7.92878 9.19529C7.38196 8.70566 7.02068 8.10831 6.91327 7.92225C6.80586 7.73619 6.9035 7.63826 6.99138 7.55013C7.0695 7.47179 7.17691 7.33469 7.26479 7.22697C7.35267 7.11925 7.38196 7.04091 7.45032 6.9234C7.5089 6.80589 7.47961 6.69817 7.43079 6.60024C7.38196 6.51211 7.03044 5.60139 6.86445 5.23906C6.72774 4.93549 6.58127 4.9257 6.45434 4.9257C6.34693 4.9257 6.22975 4.9257 6.10281 4.9257C5.97588 4.9257 5.78059 4.97466 5.61459 5.15093C5.44859 5.33699 4.97013 5.77766 4.97013 6.67858C4.97013 7.57951 5.62435 8.45105 5.71223 8.57836C5.80011 8.69587 6.97186 10.6152 8.83687 11.3497C9.88168 11.7512 10.3699 11.8393 10.6726 11.8393ZM8.70017 0C4.13038 0 0.410109 3.731 0.410109 8.31395C0.410109 9.63596 0.722573 10.9384 1.31821 12.1037L0.429638 15.4136L0 17L1.59161 16.6181L5.07754 15.7955C6.20046 16.3439 7.44055 16.6279 8.70017 16.6279C13.27 16.6279 16.9902 12.8969 17 8.31395C17 6.09102 16.1407 4.00519 14.5784 2.42858C12.9966 0.861753 10.9167 0 8.70017 0Z" fill="white"/>
</svg>
